<svg xmlns="http://www.w3.org/2000/svg" xmlns:xlink="http://www.w3.org/1999/xlink" width="32" height="32" version="1.1" viewBox="0 0 100 154"><g fill="none" stroke="none" fillRule="evenodd" strokeWidth="1"><g id="Page-1" fill="none" fill-rule="evenodd" stroke="none" stroke-width="1"><g id="dep" fill="#3c3a3a" transform="translate(4.000000, 6.000000)"><g id="Page-1"><path id="Shape" d="M15.191,138.231 L30.382,138.231 L30.382,123.039 L15.191,123.039 L15.191,138.231 Z M15.192,31.174 L30.382,31.174 L30.382,15.984 L15.192,15.984 L15.192,31.174 Z M99.124,99.894 L99.124,54.32 L64.27,54.32 L64.281,54.309 L45.574,35.602 L45.574,0.792 L0,0.792 L0,46.366 L34.854,46.366 L53.539,65.051 L53.55,65.04 L53.55,89.174 L53.528,89.152 L34.832,107.848 L0,107.848 L0,153.422 L45.574,153.422 L45.574,118.59 L64.27,99.894 L99.124,99.894 L99.124,99.894 Z"/></g></g></g></g></svg>